<svg version="1.1" id="Layer_1" xmlns="http://www.w3.org/2000/svg" xmlns:xlink="http://www.w3.org/1999/xlink" x="0px" y="0px"
	 width="100%" viewBox="0 0 500 500" enable-background="new 0 0 500 500" xml:space="preserve">
<path fill="#000000" opacity="1.000000" stroke="none" 
	d="
M231.000000,501.000000 
	C154.000015,501.000000 77.500038,501.000000 1.000041,501.000000 
	C1.000027,334.333405 1.000027,167.666779 1.000014,1.000131 
	C167.666565,1.000087 334.333130,1.000087 500.999756,1.000044 
	C500.999847,167.666519 500.999847,334.333038 500.999939,500.999786 
	C411.166656,501.000000 321.333344,501.000000 231.000000,501.000000 
M230.188995,144.765930 
	C219.964127,150.359268 209.660294,155.816895 199.589966,161.675842 
	C197.855667,162.684875 196.090714,165.388977 196.069931,167.328613 
	C195.827164,189.991714 195.842636,212.659042 196.051468,235.322845 
	C196.068741,237.198410 197.513977,239.898300 199.098557,240.792343 
	C214.901352,249.708389 230.810760,258.443573 246.872116,266.883423 
	C248.978607,267.990326 252.623672,268.136139 254.681000,267.057678 
	C270.750580,258.633759 286.658936,249.895004 302.452515,240.962418 
	C304.183472,239.983398 305.874451,237.177368 305.895721,235.200577 
	C306.137573,212.704117 306.135590,190.203247 305.906769,167.706528 
	C305.886322,165.695190 304.333282,162.807220 302.632507,161.844040 
	C286.697357,152.819717 270.632721,144.016296 254.428879,135.484497 
	C252.513855,134.476181 249.207809,134.749878 247.118759,135.694595 
	C241.520828,138.226089 236.233704,141.444901 230.188995,144.765930 
M118.095428,297.452515 
	C115.493889,302.661377 112.892349,307.870239 109.959259,313.742889 
	C107.093010,308.020050 104.461739,303.388336 102.425522,298.508331 
	C100.728439,294.441101 98.340477,293.337128 94.370300,294.998230 
	C94.370300,304.605225 94.370300,314.039673 94.370300,323.751831 
	C95.925499,323.751831 97.306160,323.751831 99.277542,323.751831 
	C99.277542,317.251465 99.277542,310.814575 99.277542,304.377716 
	C102.323845,308.911499 104.531822,313.544373 106.942963,318.068970 
	C107.556892,319.221100 109.006462,320.944977 109.735664,320.792908 
	C110.997559,320.529785 112.354698,319.205231 113.040573,317.974182 
	C115.380089,313.775177 117.444412,309.422882 119.613762,305.129089 
	C119.992622,305.238434 120.371475,305.347778 120.750336,305.457123 
	C120.750336,311.502899 120.750336,317.548706 120.750336,323.761505 
	C122.600739,323.761505 123.966927,323.761505 125.412155,323.761505 
	C125.412155,313.929413 125.412155,304.368683 125.412155,293.217316 
	C122.529846,294.696625 120.491058,295.742981 118.095428,297.452515 
M281.032043,299.698608 
	C281.032043,307.660492 281.032043,315.622375 281.032043,323.691010 
	C282.937592,323.691010 284.463257,323.691010 286.276428,323.691010 
	C286.276428,320.746460 286.276428,318.132080 286.276428,315.608612 
	C291.606506,314.117188 295.562683,314.947449 297.636566,320.435303 
	C298.910156,323.805420 301.268951,325.233246 305.020660,323.290192 
	C303.082001,320.338379 301.177216,317.438141 299.276794,314.544495 
	C304.669708,309.995575 306.212585,306.119904 304.482147,301.177765 
	C302.449036,295.371246 297.496796,294.592041 292.333099,294.408661 
	C288.711212,294.280090 285.081085,294.383850 281.245575,294.383850 
	C281.158813,296.158051 281.095459,297.453888 281.032043,299.698608 
M392.775421,303.454590 
	C392.858765,302.043671 392.942078,300.632721 393.046722,298.861084 
	C398.517090,298.861084 403.615417,298.861084 408.713745,298.861084 
	C408.983459,298.464417 409.253204,298.067749 409.522919,297.671051 
	C408.436218,296.569244 407.396057,294.574371 406.255005,294.514832 
	C400.179443,294.197906 394.078583,294.365631 387.774902,294.365631 
	C387.774902,304.525787 387.774902,314.103302 387.774902,323.855743 
	C394.911743,323.855743 401.836487,323.855743 409.127594,323.855743 
	C409.058258,322.337708 408.994690,320.945557 408.918213,319.270477 
	C403.442780,319.270477 398.345123,319.270477 393.070251,319.270477 
	C393.070251,316.575531 393.070251,314.189056 393.070251,311.447083 
	C397.802368,311.447083 402.243469,311.447083 406.852783,311.447083 
	C406.852783,309.830261 406.852783,308.570374 406.852783,306.926422 
	C403.084930,306.926422 399.439484,307.114838 395.835419,306.811401 
	C394.756805,306.720581 393.793854,305.255737 392.775421,303.454590 
M266.338074,319.385559 
	C263.378662,319.385559 260.419250,319.385559 257.332123,319.385559 
	C257.332123,316.572540 257.332123,314.325226 257.332123,311.505402 
	C260.993683,311.505402 264.458069,311.369293 267.906677,311.543793 
	C271.333771,311.717224 272.476929,310.502075 270.989349,306.854034 
	C266.517365,306.854034 261.926941,306.854034 257.400696,306.854034 
	C257.400696,304.043976 257.400696,301.636871 257.400696,298.875671 
	C262.778076,298.875671 267.875488,298.875671 273.322296,298.875671 
	C273.099792,297.099945 272.928802,295.735260 272.789673,294.624817 
	C265.664032,294.624817 259.042328,294.624817 252.237610,294.624817 
	C252.237610,304.465424 252.237610,314.041168 252.237610,323.765625 
	C259.533997,323.765625 266.613190,323.765625 273.676392,323.765625 
	C274.779053,317.125885 269.857697,320.089203 266.338074,319.385559 
M223.022461,320.480713 
	C227.875641,324.078094 233.228897,325.204315 239.005157,323.356720 
	C242.612778,322.202789 244.920914,319.787140 245.022385,315.719025 
	C245.119766,311.815643 242.910995,309.567719 239.597229,308.200745 
	C237.456680,307.317780 235.052673,306.955353 233.083252,305.813690 
	C231.551895,304.925964 230.509430,303.194946 229.249680,301.838715 
	C230.995560,300.916718 232.716827,299.311066 234.493607,299.247040 
	C236.678711,299.168396 238.908234,300.382446 241.123108,301.021973 
	C241.573639,301.152069 242.044388,301.212067 242.752670,301.353760 
	C243.331802,300.025879 243.895538,298.733276 244.552948,297.225861 
	C239.630173,294.441406 234.791229,293.288391 229.529495,294.988708 
	C226.070587,296.106415 223.814987,298.322205 223.589432,302.133698 
	C223.361557,305.984192 225.380096,308.425171 228.785248,309.765076 
	C231.248978,310.734589 233.981720,311.147247 236.260986,312.410156 
	C237.580811,313.141479 238.240067,315.064972 239.196625,316.451935 
	C237.808975,317.384491 236.302551,319.238098 235.055878,319.077362 
	C231.278976,318.590363 227.602692,317.323059 223.316727,316.211853 
	C223.114487,317.111633 222.787552,318.566254 223.022461,320.480713 
M171.933228,295.126648 
	C170.454315,294.862061 168.975388,294.597473 167.232819,294.285706 
	C167.232819,304.504517 167.232819,314.067566 167.232819,323.690338 
	C168.973297,323.690338 170.504486,323.690338 172.328445,323.690338 
	C171.281555,318.351868 172.514633,314.255066 177.428513,311.624878 
	C179.566391,314.463287 181.835510,317.119537 183.693008,320.037781 
	C185.734589,323.245239 188.026337,325.180420 192.373795,323.427063 
	C188.445328,317.905518 184.645325,312.564514 180.755478,307.097229 
	C184.448837,302.992584 187.945648,299.106354 192.308319,294.257843 
	C181.181244,294.327667 179.455811,305.023651 172.093491,308.550415 
	C172.093491,304.224579 172.093491,300.114441 171.933228,295.126648 
M158.715881,316.655182 
	C155.840485,310.132507 153.060867,303.564362 150.003372,297.128174 
	C149.437744,295.937531 147.693314,294.494354 146.594818,294.573914 
	C145.204300,294.674652 143.282578,295.916077 142.689056,297.181213 
	C138.611984,305.871490 134.822266,314.696625 130.903717,323.560547 
	C134.248932,324.666016 136.293015,324.148193 137.650009,320.660431 
	C138.218628,319.199005 140.515320,317.878357 142.238647,317.522980 
	C144.791214,316.996613 147.610123,317.003754 150.166885,317.520233 
	C151.893768,317.869049 154.196426,319.148529 154.784943,320.601654 
	C156.218002,324.140106 158.169830,324.889343 161.549698,323.402679 
	C160.664612,321.324463 159.820831,319.343170 158.715881,316.655182 
M376.323700,322.897797 
	C377.964691,321.831573 379.605682,320.765350 381.470062,319.553986 
	C380.383362,318.278687 379.543030,317.292480 378.606354,316.193207 
	C373.992859,319.561432 369.166779,320.819305 364.223297,317.583771 
	C360.724792,315.294037 358.896179,311.554138 360.100769,307.600891 
	C363.397003,296.783386 370.533447,297.282532 378.729919,302.222412 
	C379.376068,301.461945 379.942383,300.858978 380.429199,300.197540 
	C380.702759,299.825806 380.845001,299.357422 381.030853,298.965424 
	C374.800079,293.288971 366.790070,292.720703 360.531006,297.432678 
	C354.734436,301.796417 352.894440,309.892822 356.253815,316.253418 
	C359.833313,323.030762 367.202728,325.649841 376.323700,322.897797 
M325.788574,323.742340 
	C329.724457,314.163818 333.660309,304.585327 337.622955,294.941681 
	C333.794067,293.604706 332.118958,294.682587 331.021667,297.848419 
	C328.779663,304.316772 326.176758,310.660065 323.304413,318.144165 
	C320.492401,310.722839 317.873077,304.472931 315.785431,298.050201 
	C314.546173,294.237640 312.488098,293.768829 308.937897,294.886749 
	C312.369781,303.506195 315.885437,311.725922 318.870422,320.134094 
	C320.059753,323.484253 321.785400,324.597351 325.788574,323.742340 
M253.871521,354.568604 
	C256.519897,360.548553 260.318970,362.913452 266.266479,361.992554 
	C270.985687,361.261871 274.110352,358.515259 275.024078,353.754425 
	C275.843872,349.482941 274.534180,345.808350 270.848572,343.337830 
	C266.941956,340.719177 262.736084,340.509186 258.650940,342.881409 
	C254.481995,345.302277 252.835587,349.039154 253.871521,354.568604 
M226.906723,351.520752 
	C226.906723,354.971954 226.906723,358.423157 226.906723,362.345001 
	C233.239349,361.512665 228.722015,355.970459 231.190536,354.058838 
	C234.517990,354.058838 237.726151,354.058838 240.902924,354.058838 
	C241.285919,361.878082 241.285919,361.878082 244.915298,361.331696 
	C244.915298,355.579163 245.001343,349.786682 244.826355,344.002045 
	C244.798798,343.091156 243.589386,342.216034 242.926437,341.324371 
	C242.312454,342.265076 241.319839,343.148285 241.166367,344.158875 
	C240.880920,346.038605 241.084503,347.992584 241.084503,349.892487 
	C237.258896,349.892487 234.017609,349.892487 230.803406,349.892487 
	C230.199463,341.891876 230.199463,341.891876 226.906723,341.644470 
	C226.906723,344.629333 226.906723,347.588318 226.906723,351.520752 
M212.059250,341.302948 
	C211.065811,341.295990 210.039856,341.124176 209.084930,341.312469 
	C206.019272,341.917023 202.619339,343.067871 203.216492,346.705597 
	C203.575546,348.892914 206.171829,350.815796 208.006500,352.607941 
	C208.752747,353.336914 210.322861,353.169708 211.198593,353.832458 
	C212.240448,354.620941 212.938644,355.863495 213.785736,356.909332 
	C212.519836,357.526184 211.166656,358.783356 210.006393,358.625214 
	C207.666763,358.306305 205.432053,357.217621 202.215149,356.128662 
	C202.642029,357.778870 202.752640,359.790039 203.254608,359.892975 
	C206.840149,360.628326 210.558289,361.520630 214.119431,361.176117 
	C215.543716,361.038300 217.539291,357.967316 217.680130,356.110535 
	C217.799576,354.535980 215.910431,352.422180 214.381104,351.219879 
	C212.895828,350.052246 210.643448,349.914398 208.915375,348.978302 
	C208.079163,348.525360 207.672440,347.279602 207.071259,346.392761 
	C208.016220,345.876068 208.980789,344.897247 209.902206,344.936279 
	C211.996567,345.025055 214.069717,345.614044 216.151688,345.998596 
	C217.320633,342.876312 217.320633,342.876312 212.059250,341.302948 
M203.785202,321.133057 
	C203.785202,312.377869 203.785202,303.622681 203.785202,294.615295 
	C201.854095,294.615295 200.444809,294.615295 198.877838,294.615295 
	C198.877838,304.487732 198.877838,314.154327 198.877838,325.197479 
	C201.090469,323.777222 202.435547,322.913818 203.785202,321.133057 
M299.872253,351.397430 
	C300.769440,342.490356 297.091949,340.184906 284.186707,341.761169 
	C284.186707,348.447083 284.186707,355.166138 284.186707,361.877869 
	C289.852905,362.747894 286.174988,357.707855 288.596161,357.358948 
	C292.242920,355.591522 295.889648,353.824097 299.872253,351.397430 
M343.032043,318.373901 
	C343.032043,320.150116 343.032043,321.926331 343.032043,324.048920 
	C345.038727,323.947113 346.550537,323.870422 347.778137,323.808167 
	C347.778137,313.698273 347.778137,304.155121 347.778137,294.309143 
	C346.031067,294.462799 344.637115,294.585388 343.032043,294.726562 
	C343.032043,302.519623 343.032043,309.960754 343.032043,318.373901 
z"/>
<path fill="#F65454" opacity="1.000000" stroke="none" 
	d="
M230.506042,144.578308 
	C236.233704,141.444901 241.520828,138.226089 247.118759,135.694595 
	C249.207809,134.749878 252.513855,134.476181 254.428879,135.484497 
	C270.632721,144.016296 286.697357,152.819717 302.632507,161.844040 
	C304.333282,162.807220 305.886322,165.695190 305.906769,167.706528 
	C306.135590,190.203247 306.137573,212.704117 305.895721,235.200577 
	C305.874451,237.177368 304.183472,239.983398 302.452515,240.962418 
	C286.658936,249.895004 270.750580,258.633759 254.681000,267.057678 
	C252.623672,268.136139 248.978607,267.990326 246.872116,266.883423 
	C230.810760,258.443573 214.901352,249.708389 199.098557,240.792343 
	C197.513977,239.898300 196.068741,237.198410 196.051468,235.322845 
	C195.842636,212.659042 195.827164,189.991714 196.069931,167.328613 
	C196.090714,165.388977 197.855667,162.684875 199.589966,161.675842 
	C209.660294,155.816895 219.964127,150.359268 230.506042,144.578308 
M289.399078,238.959137 
	C290.601288,238.216064 291.803497,237.472992 293.452667,236.453659 
	C285.947113,232.332184 279.018463,228.398209 271.934540,224.767075 
	C270.777954,224.174210 268.730377,224.496445 267.448364,225.121399 
	C263.120850,227.231003 259.093658,230.010834 254.662537,231.830353 
	C252.530716,232.705719 249.454803,232.733612 247.327652,231.866547 
	C242.892883,230.058838 238.848846,227.313065 234.545731,225.148605 
	C233.350784,224.547546 231.479462,223.992981 230.480682,224.507828 
	C223.206406,228.257385 216.075745,232.285568 208.195572,236.612335 
	C221.874130,244.085175 234.744843,250.991592 247.464523,258.165802 
	C250.173096,259.693481 252.088562,259.498108 254.678345,258.036896 
	C265.967865,251.667023 277.387360,245.527542 289.399078,238.959137 
M291.979706,200.385223 
	C290.089813,199.341721 288.211670,198.276276 286.307800,197.258926 
	C281.040558,194.444244 275.794769,189.527466 270.479706,189.446762 
	C265.214447,189.366821 259.992126,194.459213 254.509003,196.687531 
	C252.392120,197.547821 249.327164,197.462662 247.189575,196.591995 
	C242.910965,194.849228 239.013260,192.190765 234.871811,190.080017 
	C233.632629,189.448425 231.743622,188.669220 230.769501,189.166550 
	C223.366684,192.945755 216.117096,197.025101 208.169983,201.365829 
	C222.233292,209.050873 235.295532,216.306839 248.521179,223.251556 
	C250.003235,224.029800 252.723740,223.635727 254.340393,222.782272 
	C266.383148,216.424667 278.303314,209.833984 290.221619,203.243423 
	C291.149323,202.730423 291.770081,201.662369 291.979706,200.385223 
M291.510376,164.885330 
	C279.109100,158.107941 266.664093,151.408386 254.342972,144.488358 
	C251.837784,143.081345 250.007050,143.124130 247.537384,144.523697 
	C237.991562,149.933334 228.302765,155.090347 218.678345,160.361771 
	C215.394501,162.160385 212.143326,164.018692 208.276245,166.186661 
	C222.309433,173.859024 235.538269,181.160141 248.872955,188.262482 
	C250.040161,188.884155 252.168747,188.702438 253.400269,188.047195 
	C266.022919,181.330933 278.562988,174.458664 291.075287,167.538101 
	C291.672882,167.207565 291.795166,166.017685 291.510376,164.885330 
M298.204071,224.222504 
	C298.204071,219.204117 298.204071,214.185730 298.204071,208.211044 
	C291.275848,212.017746 285.343842,215.277069 278.534668,219.018356 
	C285.551849,222.835983 291.505829,226.075180 297.941071,229.576187 
	C298.068726,227.423340 298.136536,226.279892 298.204071,224.222504 
M284.801971,180.307083 
	C283.024902,181.336578 281.247833,182.366089 278.710968,183.835739 
	C285.528961,187.573730 291.512390,190.854172 297.773407,194.286804 
	C297.773407,186.969070 297.773407,180.477188 297.773407,173.287994 
	C293.247253,175.729462 289.344788,177.834503 284.801971,180.307083 
M218.340439,216.186935 
	C213.736847,213.721893 209.133270,211.256866 204.069794,208.545563 
	C204.069794,215.749023 204.069794,222.219604 204.069794,229.526031 
	C210.612259,225.956558 216.546799,222.718781 223.128021,219.128159 
	C221.167953,217.924973 220.075287,217.254227 218.340439,216.186935 
M209.063004,191.601868 
	C213.575577,189.113663 218.088150,186.625458 223.347870,183.725281 
	C216.403107,179.941116 210.526184,176.738800 204.057739,173.214172 
	C204.057739,180.621567 204.057739,187.092636 204.057739,194.076508 
	C205.806259,193.227386 207.102936,192.597687 209.063004,191.601868 
z"/>
<path fill="#EEEEEE" opacity="1.000000" stroke="none" 
	d="
M118.273849,297.120941 
	C120.491058,295.742981 122.529846,294.696625 125.412155,293.217316 
	C125.412155,304.368683 125.412155,313.929413 125.412155,323.761505 
	C123.966927,323.761505 122.600739,323.761505 120.750336,323.761505 
	C120.750336,317.548706 120.750336,311.502899 120.750336,305.457123 
	C120.371475,305.347778 119.992622,305.238434 119.613762,305.129089 
	C117.444412,309.422882 115.380089,313.775177 113.040573,317.974182 
	C112.354698,319.205231 110.997559,320.529785 109.735664,320.792908 
	C109.006462,320.944977 107.556892,319.221100 106.942963,318.068970 
	C104.531822,313.544373 102.323845,308.911499 99.277542,304.377716 
	C99.277542,310.814575 99.277542,317.251465 99.277542,323.751831 
	C97.306160,323.751831 95.925499,323.751831 94.370300,323.751831 
	C94.370300,314.039673 94.370300,304.605225 94.370300,294.998230 
	C98.340477,293.337128 100.728439,294.441101 102.425522,298.508331 
	C104.461739,303.388336 107.093010,308.020050 109.959259,313.742889 
	C112.892349,307.870239 115.493889,302.661377 118.273849,297.120941 
z"/>
<path fill="#F3F3F3" opacity="1.000000" stroke="none" 
	d="
M281.032074,299.224182 
	C281.095459,297.453888 281.158813,296.158051 281.245575,294.383850 
	C285.081085,294.383850 288.711212,294.280090 292.333099,294.408661 
	C297.496796,294.592041 302.449036,295.371246 304.482147,301.177765 
	C306.212585,306.119904 304.669708,309.995575 299.276794,314.544495 
	C301.177216,317.438141 303.082001,320.338379 305.020660,323.290192 
	C301.268951,325.233246 298.910156,323.805420 297.636566,320.435303 
	C295.562683,314.947449 291.606506,314.117188 286.276428,315.608612 
	C286.276428,318.132080 286.276428,320.746460 286.276428,323.691010 
	C284.463257,323.691010 282.937592,323.691010 281.032043,323.691010 
	C281.032043,315.622375 281.032043,307.660492 281.032074,299.224182 
M299.033569,308.383270 
	C302.472870,301.531799 298.086426,297.423889 286.483521,299.426880 
	C286.483521,303.122986 286.483521,306.805695 286.483521,311.431396 
	C290.857391,310.540680 294.674194,309.763397 299.033569,308.383270 
z"/>
<path fill="#EFEFEF" opacity="1.000000" stroke="none" 
	d="
M392.776672,303.937500 
	C393.793854,305.255737 394.756805,306.720581 395.835419,306.811401 
	C399.439484,307.114838 403.084930,306.926422 406.852783,306.926422 
	C406.852783,308.570374 406.852783,309.830261 406.852783,311.447083 
	C402.243469,311.447083 397.802368,311.447083 393.070251,311.447083 
	C393.070251,314.189056 393.070251,316.575531 393.070251,319.270477 
	C398.345123,319.270477 403.442780,319.270477 408.918213,319.270477 
	C408.994690,320.945557 409.058258,322.337708 409.127594,323.855743 
	C401.836487,323.855743 394.911743,323.855743 387.774902,323.855743 
	C387.774902,314.103302 387.774902,304.525787 387.774902,294.365631 
	C394.078583,294.365631 400.179443,294.197906 406.255005,294.514832 
	C407.396057,294.574371 408.436218,296.569244 409.522919,297.671051 
	C409.253204,298.067749 408.983459,298.464417 408.713745,298.861084 
	C403.615417,298.861084 398.517090,298.861084 393.046722,298.861084 
	C392.942078,300.632721 392.858765,302.043671 392.776672,303.937500 
z"/>
<path fill="#EFEFEF" opacity="1.000000" stroke="none" 
	d="
M266.817322,319.385559 
	C269.857697,320.089203 274.779053,317.125885 273.676392,323.765625 
	C266.613190,323.765625 259.533997,323.765625 252.237610,323.765625 
	C252.237610,314.041168 252.237610,304.465424 252.237610,294.624817 
	C259.042328,294.624817 265.664032,294.624817 272.789673,294.624817 
	C272.928802,295.735260 273.099792,297.099945 273.322296,298.875671 
	C267.875488,298.875671 262.778076,298.875671 257.400696,298.875671 
	C257.400696,301.636871 257.400696,304.043976 257.400696,306.854034 
	C261.926941,306.854034 266.517365,306.854034 270.989349,306.854034 
	C272.476929,310.502075 271.333771,311.717224 267.906677,311.543793 
	C264.458069,311.369293 260.993683,311.505402 257.332123,311.505402 
	C257.332123,314.325226 257.332123,316.572540 257.332123,319.385559 
	C260.419250,319.385559 263.378662,319.385559 266.817322,319.385559 
z"/>
<path fill="#F1F1F1" opacity="1.000000" stroke="none" 
	d="
M222.741547,320.250793 
	C222.787552,318.566254 223.114487,317.111633 223.316727,316.211853 
	C227.602692,317.323059 231.278976,318.590363 235.055878,319.077362 
	C236.302551,319.238098 237.808975,317.384491 239.196625,316.451935 
	C238.240067,315.064972 237.580811,313.141479 236.260986,312.410156 
	C233.981720,311.147247 231.248978,310.734589 228.785248,309.765076 
	C225.380096,308.425171 223.361557,305.984192 223.589432,302.133698 
	C223.814987,298.322205 226.070587,296.106415 229.529495,294.988708 
	C234.791229,293.288391 239.630173,294.441406 244.552948,297.225861 
	C243.895538,298.733276 243.331802,300.025879 242.752670,301.353760 
	C242.044388,301.212067 241.573639,301.152069 241.123108,301.021973 
	C238.908234,300.382446 236.678711,299.168396 234.493607,299.247040 
	C232.716827,299.311066 230.995560,300.916718 229.249680,301.838715 
	C230.509430,303.194946 231.551895,304.925964 233.083252,305.813690 
	C235.052673,306.955353 237.456680,307.317780 239.597229,308.200745 
	C242.910995,309.567719 245.119766,311.815643 245.022385,315.719025 
	C244.920914,319.787140 242.612778,322.202789 239.005157,323.356720 
	C233.228897,325.204315 227.875641,324.078094 222.741547,320.250793 
z"/>
<path fill="#F2F2F2" opacity="1.000000" stroke="none" 
	d="
M172.013367,295.565491 
	C172.093491,300.114441 172.093491,304.224579 172.093491,308.550415 
	C179.455811,305.023651 181.181244,294.327667 192.308319,294.257843 
	C187.945648,299.106354 184.448837,302.992584 180.755478,307.097229 
	C184.645325,312.564514 188.445328,317.905518 192.373795,323.427063 
	C188.026337,325.180420 185.734589,323.245239 183.693008,320.037781 
	C181.835510,317.119537 179.566391,314.463287 177.428513,311.624878 
	C172.514633,314.255066 171.281555,318.351868 172.328445,323.690338 
	C170.504486,323.690338 168.973297,323.690338 167.232819,323.690338 
	C167.232819,314.067566 167.232819,304.504517 167.232819,294.285706 
	C168.975388,294.597473 170.454315,294.862061 172.013367,295.565491 
z"/>
<path fill="#F2F2F2" opacity="1.000000" stroke="none" 
	d="
M158.846466,317.008545 
	C159.820831,319.343170 160.664612,321.324463 161.549698,323.402679 
	C158.169830,324.889343 156.218002,324.140106 154.784943,320.601654 
	C154.196426,319.148529 151.893768,317.869049 150.166885,317.520233 
	C147.610123,317.003754 144.791214,316.996613 142.238647,317.522980 
	C140.515320,317.878357 138.218628,319.199005 137.650009,320.660431 
	C136.293015,324.148193 134.248932,324.666016 130.903717,323.560547 
	C134.822266,314.696625 138.611984,305.871490 142.689056,297.181213 
	C143.282578,295.916077 145.204300,294.674652 146.594818,294.573914 
	C147.693314,294.494354 149.437744,295.937531 150.003372,297.128174 
	C153.060867,303.564362 155.840485,310.132507 158.846466,317.008545 
M149.021606,306.597870 
	C148.196045,304.722992 147.370483,302.848114 146.187637,300.161804 
	C144.209335,304.769073 142.553665,308.624969 140.817230,312.668945 
	C144.560486,312.668945 147.761108,312.668945 151.484131,312.668945 
	C150.638702,310.622833 149.961212,308.983124 149.021606,306.597870 
z"/>
<path fill="#F1F1F1" opacity="1.000000" stroke="none" 
	d="
M375.961823,323.013397 
	C367.202728,325.649841 359.833313,323.030762 356.253815,316.253418 
	C352.894440,309.892822 354.734436,301.796417 360.531006,297.432678 
	C366.790070,292.720703 374.800079,293.288971 381.030853,298.965424 
	C380.845001,299.357422 380.702759,299.825806 380.429199,300.197540 
	C379.942383,300.858978 379.376068,301.461945 378.729919,302.222412 
	C370.533447,297.282532 363.397003,296.783386 360.100769,307.600891 
	C358.896179,311.554138 360.724792,315.294037 364.223297,317.583771 
	C369.166779,320.819305 373.992859,319.561432 378.606354,316.193207 
	C379.543030,317.292480 380.383362,318.278687 381.470062,319.553986 
	C379.605682,320.765350 377.964691,321.831573 375.961823,323.013397 
z"/>
<path fill="#EFEFEF" opacity="1.000000" stroke="none" 
	d="
M325.408081,323.869110 
	C321.785400,324.597351 320.059753,323.484253 318.870422,320.134094 
	C315.885437,311.725922 312.369781,303.506195 308.937897,294.886749 
	C312.488098,293.768829 314.546173,294.237640 315.785431,298.050201 
	C317.873077,304.472931 320.492401,310.722839 323.304413,318.144165 
	C326.176758,310.660065 328.779663,304.316772 331.021667,297.848419 
	C332.118958,294.682587 333.794067,293.604706 337.622955,294.941681 
	C333.660309,304.585327 329.724457,314.163818 325.408081,323.869110 
z"/>
<path fill="#ECECEC" opacity="1.000000" stroke="none" 
	d="
M253.789047,354.197083 
	C252.835587,349.039154 254.481995,345.302277 258.650940,342.881409 
	C262.736084,340.509186 266.941956,340.719177 270.848572,343.337830 
	C274.534180,345.808350 275.843872,349.482941 275.024078,353.754425 
	C274.110352,358.515259 270.985687,361.261871 266.266479,361.992554 
	C260.318970,362.913452 256.519897,360.548553 253.789047,354.197083 
M269.538086,356.819275 
	C273.879425,352.391449 270.667419,345.679962 266.219269,344.908875 
	C262.786804,344.313812 259.330536,344.949310 258.264832,348.324036 
	C257.498596,350.750397 257.805634,354.406616 259.204437,356.426636 
	C261.579041,359.855743 265.392212,359.853516 269.538086,356.819275 
z"/>
<path fill="#E6E6E6" opacity="1.000000" stroke="none" 
	d="
M226.906723,351.034027 
	C226.906723,347.588318 226.906723,344.629333 226.906723,341.644470 
	C230.199463,341.891876 230.199463,341.891876 230.803406,349.892487 
	C234.017609,349.892487 237.258896,349.892487 241.084503,349.892487 
	C241.084503,347.992584 240.880920,346.038605 241.166367,344.158875 
	C241.319839,343.148285 242.312454,342.265076 242.926422,341.324371 
	C243.589386,342.216034 244.798798,343.091156 244.826355,344.002045 
	C245.001343,349.786682 244.915298,355.579163 244.915298,361.331696 
	C241.285919,361.878082 241.285919,361.878082 240.902924,354.058838 
	C237.726151,354.058838 234.517990,354.058838 231.190536,354.058838 
	C228.722015,355.970459 233.239349,361.512665 226.906723,362.345001 
	C226.906723,358.423157 226.906723,354.971954 226.906723,351.034027 
z"/>
<path fill="#ECECEC" opacity="1.000000" stroke="none" 
	d="
M212.436584,341.387360 
	C217.320633,342.876312 217.320633,342.876312 216.151596,345.999146 
	C214.069717,345.614044 211.996567,345.025055 209.902206,344.936279 
	C208.980789,344.897247 208.016220,345.876068 207.071259,346.392761 
	C207.672440,347.279602 208.079163,348.525360 208.915375,348.978302 
	C210.643448,349.914398 212.895828,350.052246 214.381104,351.219879 
	C215.910431,352.422180 217.799576,354.535980 217.680130,356.110535 
	C217.539291,357.967316 215.543716,361.038300 214.119431,361.176117 
	C210.558289,361.520630 206.840149,360.628326 203.254608,359.892975 
	C202.752640,359.790039 202.642029,357.778870 202.215149,356.128662 
	C205.432053,357.217621 207.666763,358.306305 210.006393,358.625214 
	C211.166656,358.783356 212.519836,357.526184 213.785736,356.909332 
	C212.938644,355.863495 212.240448,354.620941 211.198593,353.832458 
	C210.322861,353.169708 208.752747,353.336914 208.006500,352.607941 
	C206.171829,350.815796 203.575546,348.892914 203.216492,346.705597 
	C202.619339,343.067871 206.019272,341.917023 209.084930,341.312469 
	C210.039856,341.124176 211.065811,341.295990 212.436584,341.387360 
z"/>
<path fill="#ECECEC" opacity="1.000000" stroke="none" 
	d="
M203.782913,321.591736 
	C202.435547,322.913818 201.090469,323.777222 198.877838,325.197479 
	C198.877838,314.154327 198.877838,304.487732 198.877838,294.615295 
	C200.444809,294.615295 201.854095,294.615295 203.785202,294.615295 
	C203.785202,303.622681 203.785202,312.377869 203.782913,321.591736 
z"/>
<path fill="#EEEEEE" opacity="1.000000" stroke="none" 
	d="
M299.704346,351.727051 
	C295.889648,353.824097 292.242920,355.591522 288.596161,357.358948 
	C286.174988,357.707855 289.852905,362.747894 284.186707,361.877869 
	C284.186707,355.166138 284.186707,348.447083 284.186707,341.761169 
	C297.091949,340.184906 300.769440,342.490356 299.704346,351.727051 
M287.431000,346.672607 
	C287.431000,348.601532 287.431000,350.530457 287.431000,352.945526 
	C290.186523,352.664307 292.447021,352.855103 294.314972,352.088959 
	C295.483978,351.609467 296.637329,349.726807 296.723907,348.403503 
	C296.793701,347.337280 295.354767,345.322357 294.408508,345.209503 
	C292.161316,344.941406 289.809326,345.552063 287.431000,346.672607 
z"/>
<path fill="#F3F3F3" opacity="1.000000" stroke="none" 
	d="
M343.032043,317.887909 
	C343.032043,309.960754 343.032043,302.519623 343.032043,294.726562 
	C344.637115,294.585388 346.031067,294.462799 347.778137,294.309143 
	C347.778137,304.155121 347.778137,313.698273 347.778137,323.808167 
	C346.550537,323.870422 345.038727,323.947113 343.032043,324.048920 
	C343.032043,321.926331 343.032043,320.150116 343.032043,317.887909 
z"/>
<path fill="#050202" opacity="1.000000" stroke="none" 
	d="
M289.079376,239.131775 
	C277.387360,245.527542 265.967865,251.667023 254.678345,258.036896 
	C252.088562,259.498108 250.173096,259.693481 247.464523,258.165802 
	C234.744843,250.991592 221.874130,244.085175 208.195572,236.612335 
	C216.075745,232.285568 223.206406,228.257385 230.480682,224.507828 
	C231.479462,223.992981 233.350784,224.547546 234.545731,225.148605 
	C238.848846,227.313065 242.892883,230.058838 247.327652,231.866547 
	C249.454803,232.733612 252.530716,232.705719 254.662537,231.830353 
	C259.093658,230.010834 263.120850,227.231003 267.448364,225.121399 
	C268.730377,224.496445 270.777954,224.174210 271.934540,224.767075 
	C279.018463,228.398209 285.947113,232.332184 293.452667,236.453659 
	C291.803497,237.472992 290.601288,238.216064 289.079376,239.131775 
z"/>
<path fill="#050202" opacity="1.000000" stroke="none" 
	d="
M292.256622,200.618744 
	C291.770081,201.662369 291.149323,202.730423 290.221619,203.243423 
	C278.303314,209.833984 266.383148,216.424667 254.340393,222.782272 
	C252.723740,223.635727 250.003235,224.029800 248.521179,223.251556 
	C235.295532,216.306839 222.233292,209.050873 208.169983,201.365829 
	C216.117096,197.025101 223.366684,192.945755 230.769501,189.166550 
	C231.743622,188.669220 233.632629,189.448425 234.871811,190.080017 
	C239.013260,192.190765 242.910965,194.849228 247.189575,196.591995 
	C249.327164,197.462662 252.392120,197.547821 254.509003,196.687531 
	C259.992126,194.459213 265.214447,189.366821 270.479706,189.446762 
	C275.794769,189.527466 281.040558,194.444244 286.307800,197.258926 
	C288.211670,198.276276 290.089813,199.341721 292.256622,200.618744 
z"/>
<path fill="#070202" opacity="1.000000" stroke="none" 
	d="
M291.824585,165.056671 
	C291.795166,166.017685 291.672882,167.207565 291.075287,167.538101 
	C278.562988,174.458664 266.022919,181.330933 253.400269,188.047195 
	C252.168747,188.702438 250.040161,188.884155 248.872955,188.262482 
	C235.538269,181.160141 222.309433,173.859024 208.276245,166.186661 
	C212.143326,164.018692 215.394501,162.160385 218.678345,160.361771 
	C228.302765,155.090347 237.991562,149.933334 247.537384,144.523697 
	C250.007050,143.124130 251.837784,143.081345 254.342972,144.488358 
	C266.664093,151.408386 279.109100,158.107941 291.824585,165.056671 
M255.416306,175.955368 
	C259.063599,173.950989 262.788788,172.073837 266.334167,169.903000 
	C269.297516,168.088531 270.281281,165.134933 267.202484,163.040894 
	C262.550110,159.876572 257.415039,157.384262 252.333542,154.918747 
	C251.257553,154.396683 249.359161,154.877502 248.131729,155.485657 
	C243.958115,157.553604 239.832489,159.748291 235.845551,162.154709 
	C231.859711,164.560486 231.948608,167.717590 236.042786,170.198242 
	C239.598602,172.352722 243.414886,174.080414 246.948410,176.267593 
	C249.664886,177.949036 252.145294,178.264557 255.416306,175.955368 
z"/>
<path fill="#0A0303" opacity="1.000000" stroke="none" 
	d="
M298.204224,224.679474 
	C298.136536,226.279892 298.068726,227.423340 297.941071,229.576187 
	C291.505829,226.075180 285.551849,222.835983 278.534668,219.018356 
	C285.343842,215.277069 291.275848,212.017746 298.204071,208.211044 
	C298.204071,214.185730 298.204071,219.204117 298.204224,224.679474 
z"/>
<path fill="#0A0303" opacity="1.000000" stroke="none" 
	d="
M285.122131,180.123322 
	C289.344788,177.834503 293.247253,175.729462 297.773407,173.287994 
	C297.773407,180.477188 297.773407,186.969070 297.773407,194.286804 
	C291.512390,190.854172 285.528961,187.573730 278.710968,183.835739 
	C281.247833,182.366089 283.024902,181.336578 285.122131,180.123322 
z"/>
<path fill="#0A0303" opacity="1.000000" stroke="none" 
	d="
M218.661530,216.385223 
	C220.075287,217.254227 221.167953,217.924973 223.128021,219.128159 
	C216.546799,222.718781 210.612259,225.956558 204.069794,229.526031 
	C204.069794,222.219604 204.069794,215.749023 204.069794,208.545563 
	C209.133270,211.256866 213.736847,213.721893 218.661530,216.385223 
z"/>
<path fill="#0A0303" opacity="1.000000" stroke="none" 
	d="
M208.731293,191.784943 
	C207.102936,192.597687 205.806259,193.227386 204.057739,194.076508 
	C204.057739,187.092636 204.057739,180.621567 204.057739,173.214172 
	C210.526184,176.738800 216.403107,179.941116 223.347870,183.725281 
	C218.088150,186.625458 213.575577,189.113663 208.731293,191.784943 
z"/>
<path fill="#0B0B0B" opacity="1.000000" stroke="none" 
	d="
M298.762268,308.684692 
	C294.674194,309.763397 290.857391,310.540680 286.483521,311.431396 
	C286.483521,306.805695 286.483521,303.122986 286.483521,299.426880 
	C298.086426,297.423889 302.472870,301.531799 298.762268,308.684692 
z"/>
<path fill="#0B0B0B" opacity="1.000000" stroke="none" 
	d="
M149.152664,306.970642 
	C149.961212,308.983124 150.638702,310.622833 151.484131,312.668945 
	C147.761108,312.668945 144.560486,312.668945 140.817230,312.668945 
	C142.553665,308.624969 144.209335,304.769073 146.187637,300.161804 
	C147.370483,302.848114 148.196045,304.722992 149.152664,306.970642 
z"/>
<path fill="#0B0B0B" opacity="1.000000" stroke="none" 
	d="
M269.223389,357.076233 
	C265.392212,359.853516 261.579041,359.855743 259.204437,356.426636 
	C257.805634,354.406616 257.498596,350.750397 258.264832,348.324036 
	C259.330536,344.949310 262.786804,344.313812 266.219269,344.908875 
	C270.667419,345.679962 273.879425,352.391449 269.223389,357.076233 
z"/>
<path fill="#171717" opacity="1.000000" stroke="none" 
	d="
M287.465332,346.240112 
	C289.809326,345.552063 292.161316,344.941406 294.408508,345.209503 
	C295.354767,345.322357 296.793701,347.337280 296.723907,348.403503 
	C296.637329,349.726807 295.483978,351.609467 294.314972,352.088959 
	C292.447021,352.855103 290.186523,352.664307 287.431000,352.945526 
	C287.431000,350.530457 287.431000,348.601532 287.465332,346.240112 
z"/>
<path fill="#F85555" opacity="1.000000" stroke="none" 
	d="
M255.093155,176.141754 
	C252.145294,178.264557 249.664886,177.949036 246.948410,176.267593 
	C243.414886,174.080414 239.598602,172.352722 236.042786,170.198242 
	C231.948608,167.717590 231.859711,164.560486 235.845551,162.154709 
	C239.832489,159.748291 243.958115,157.553604 248.131729,155.485657 
	C249.359161,154.877502 251.257553,154.396683 252.333542,154.918747 
	C257.415039,157.384262 262.550110,159.876572 267.202484,163.040894 
	C270.281281,165.134933 269.297516,168.088531 266.334167,169.903000 
	C262.788788,172.073837 259.063599,173.950989 255.093155,176.141754 
z"/>
</svg>